<?xml version="1.0" encoding="UTF-8"?>
<!DOCTYPE svg PUBLIC "-//W3C//DTD SVG 1.1//EN" "http://www.w3.org/Graphics/SVG/1.1/DTD/svg11.dtd">
<!-- Creator: CorelDRAW 2020 (64-Bit) -->
<svg xmlns="http://www.w3.org/2000/svg" xml:space="preserve" width="8.2in" height="8.2in" version="1.1" style="shape-rendering:geometricPrecision; text-rendering:geometricPrecision; image-rendering:optimizeQuality; fill-rule:evenodd; clip-rule:evenodd"
viewBox="0 0 3740.07 3740.07"
 xmlns:xlink="http://www.w3.org/1999/xlink"
 xmlns:xodm="http://www.corel.com/coreldraw/odm/2003">
 <defs>
  <style type="text/css">
   <![CDATA[
    .fil3 {fill:none}
    .fil1 {fill:#CE002F}
    .fil2 {fill:#DE0030}
    .fil0 {fill:#F7DF1E}
    .fil4 {fill:#FEFEFE}
   ]]>
  </style>
   <clipPath id="id0">
    <path d="M-0 0l3740.07 0 0 3740.07 -3740.07 0 0 -3740.07z"/>
   </clipPath>
 </defs>
 <g id="Capa_x0020_1">
  <metadata id="CorelCorpID_0Corel-Layer"/>
  <polygon class="fil0" points="-0,0 3740.07,0 3740.07,3740.07 -0,3740.07 "/>
  <g style="clip-path:url(#id0)">
   <g id="_1290310480">
    <rect class="fil1" x="2020.01" y="-134.15" width="2451.62" height="4008.05"/>
    <rect class="fil2" x="-746.76" y="-134.15" width="2781.98" height="4008.37"/>
   </g>
  </g>
  <polygon class="fil3" points="-0,0 3740.07,0 3740.07,3740.07 -0,3740.07 "/>
  <path class="fil4" d="M1872.89 1515.59l263.85 635.62 -265.39 0 -265.66 -0.31 264.93 -637.54 2.26 2.22zm-1.54 917.18l381.89 -0c5.69,2.96 1.66,-1.56 5.7,6.41 0.94,1.86 1.85,4.85 2.63,6.88 48.28,126.08 104.97,262.25 155.59,388.52 2.53,6.32 18.27,53.48 25.08,54.86l336.13 -0.33 -905.47 -2038.46c-7.16,3.29 -12.3,22.2 -15.77,29.71l-99.42 223.3c-37.24,85.4 -75.8,169.63 -113.78,254.57 -56.05,125.34 -113.59,259.16 -170.67,383.05l-398.07 892.43c-37.63,84.96 -75.92,170.13 -113.48,255.05l338.92 0.7 182.81 -456.13 387.92 -0.55z"/>
 </g>
</svg>
