<?xml version="1.0" encoding="UTF-8"?>
<!DOCTYPE svg PUBLIC "-//W3C//DTD SVG 1.1//EN" "http://www.w3.org/Graphics/SVG/1.1/DTD/svg11.dtd">
<!-- Creator: CorelDRAW 2020 (64-Bit) -->
<svg xmlns="http://www.w3.org/2000/svg" xml:space="preserve" width="8.2in" height="8.2in" version="1.1" style="shape-rendering:geometricPrecision; text-rendering:geometricPrecision; image-rendering:optimizeQuality; fill-rule:evenodd; clip-rule:evenodd"
viewBox="0 0 665.45 665.45"
 xmlns:xlink="http://www.w3.org/1999/xlink"
 xmlns:xodm="http://www.corel.com/coreldraw/odm/2003">
 <defs>
  <style type="text/css">
   <![CDATA[
    .fil2 {fill:none}
    .fil1 {fill:#55B509}
    .fil4 {fill:#ECFDE5}
    .fil0 {fill:#F7DF1E}
    .fil3 {fill:#FEFDFE}
   ]]>
  </style>
   <clipPath id="id0">
    <path d="M-0 0l665.45 0 0 665.45 -665.45 0 0 -665.45z"/>
   </clipPath>
 </defs>
 <g id="Capa_x0020_1">
  <metadata id="CorelCorpID_0Corel-Layer"/>
  <polygon class="fil0" points="-0,0 665.45,0 665.45,665.45 -0,665.45 "/>
  <g style="clip-path:url(#id0)">
   <g id="_1122189552">
    <g>
     <rect class="fil1" x="359.41" y="-23.87" width="436.2" height="713.13"/>
     <rect class="fil1" x="-132.87" y="-23.87" width="494.98" height="713.18"/>
    </g>
   </g>
  </g>
  <polygon class="fil2" points="-0,0 665.45,0 665.45,665.45 -0,665.45 "/>
  <g id="_1122187920">
   <path class="fil3" d="M284.25 250.74c0,43.94 5.76,83.16 14.18,123.01 3.98,18.82 20.14,91.34 27.97,104.29l9.89 0.17c7.59,-11.96 23.66,-84.48 28.12,-104.4 59.3,-264.91 -80.16,-322.29 -80.16,-123.06z"/>
   <path class="fil3" d="M315.93 475.47c-0.76,-4.88 -15.76,-33.44 -18.78,-39.26 -31.7,-60.99 -68.08,-169.93 -45.39,-238.13 11.85,-35.61 26.62,-46.02 52.67,-65.92 -33.78,2.79 -64.54,32.58 -77.41,56.76 -18.9,35.51 -18.77,71.42 -6.94,112.68 13.06,45.53 39.49,99.37 65.24,136.67 10.86,15.73 19.93,24.7 30.61,37.19z"/>
   <path class="fil3" d="M357.4 132.59c22.36,5.02 47,41.72 54.56,64.11 23.58,69.84 -12.49,175.18 -43.85,238.09 -6.03,12.1 -15.79,27.99 -19.68,39.2 16.65,-10.87 45.79,-58.71 56.67,-79.36 34.13,-64.79 67.32,-139.75 30.86,-208.09 -12.75,-23.9 -47.22,-54.03 -80.4,-55.43l1.83 1.49z"/>
   <path class="fil4" d="M246.96 403.32c11.29,16.13 41.25,59.01 53.66,65.1 -42.96,-62.18 -116.47,-157.53 -101.52,-245.72 4.41,-26.01 28.04,-65.41 45.74,-71.68 -8.03,2.28 -20.33,12.17 -26.21,17.74 -66.61,63.14 -14.28,173.7 28.32,234.56z"/>
   <path class="fil4" d="M478.53 236.9c-1.8,-20.13 -8.28,-36.66 -17.09,-50.05 -3.88,-5.89 -9.23,-12.21 -15.37,-18.19 -43.65,-42.55 0.65,8.65 4.67,15.19 27.33,44.48 16.39,98.55 -1.36,142.37 -23.14,57.11 -57.23,104.89 -88.37,145.22 16.99,-8.3 62.38,-75.73 75.8,-98.65 20.57,-35.15 42.7,-83.17 41.73,-135.89z"/>
   <path class="fil3" d="M310.57 534.27l43.44 0.07 6.85 -35.61 -58.49 0.22c1.66,9.27 5.72,28.75 8.21,35.33z"/>
  </g>
 </g>
</svg>
