<?xml version="1.0" encoding="UTF-8"?>
<!DOCTYPE svg PUBLIC "-//W3C//DTD SVG 1.1//EN" "http://www.w3.org/Graphics/SVG/1.1/DTD/svg11.dtd">
<!-- Creator: CorelDRAW 2020 (64-Bit) -->
<svg xmlns="http://www.w3.org/2000/svg" xml:space="preserve" width="8.2in" height="8.2in" version="1.1" style="shape-rendering:geometricPrecision; text-rendering:geometricPrecision; image-rendering:optimizeQuality; fill-rule:evenodd; clip-rule:evenodd"
viewBox="0 0 770.21 770.21"
 xmlns:xlink="http://www.w3.org/1999/xlink"
 xmlns:xodm="http://www.corel.com/coreldraw/odm/2003">
 <defs>
  <style type="text/css">
   <![CDATA[
    .fil2 {fill:none}
    .fil1 {fill:#E44C25}
    .fil0 {fill:#F16529}
    .fil3 {fill:white}
   ]]>
  </style>
   <clipPath id="id0">
    <path d="M-0 0l770.21 0 0 770.21 -770.21 0 0 -770.21z"/>
   </clipPath>
 </defs>
 <g id="Capa_x0020_1">
  <metadata id="CorelCorpID_0Corel-Layer"/>
  <g>
  </g>
  <g style="clip-path:url(#id0)">
   <g>
    <rect class="fil0" x="415.99" y="-27.63" width="504.87" height="825.4"/>
    <rect class="fil1" x="-153.78" y="-27.63" width="572.91" height="825.47"/>
   </g>
  </g>
  <polygon class="fil2" points="-0,0 770.21,0 770.21,770.21 -0,770.21 "/>
  <polygon class="fil3" points="574.46,173.13 195.75,170.61 216.08,399.91 478.41,399.87 469.88,498.21 383.25,521.8 302.48,498.36 295.29,437.21 219.63,437.77 230.08,556.8 386.44,599.61 540.51,556.49 561.33,324.54 285.27,323.81 280.82,246.23 568.56,246.14 "/>
 </g>
</svg>
