<?xml version="1.0" encoding="UTF-8"?>
<!DOCTYPE svg PUBLIC "-//W3C//DTD SVG 1.1//EN" "http://www.w3.org/Graphics/SVG/1.1/DTD/svg11.dtd">
<!-- Creator: CorelDRAW 2020 (64-Bit) -->
<svg xmlns="http://www.w3.org/2000/svg" xml:space="preserve" width="8.2in" height="8.2in" version="1.1" style="shape-rendering:geometricPrecision; text-rendering:geometricPrecision; image-rendering:optimizeQuality; fill-rule:evenodd; clip-rule:evenodd"
viewBox="0 0 1789.33 1789.33"
 xmlns:xlink="http://www.w3.org/1999/xlink"
 xmlns:xodm="http://www.corel.com/coreldraw/odm/2003">
 <defs>
  <style type="text/css">
   <![CDATA[
    .fil2 {fill:none}
    .fil6 {fill:#0A69AC}
    .fil5 {fill:#0B6AB1}
    .fil4 {fill:#0B6CB2}
    .fil1 {fill:#DBDBDB}
    .fil3 {fill:#DF1F21}
    .fil0 {fill:#F7DF1E}
   ]]>
  </style>
   <clipPath id="id0">
    <path d="M-0 0l1789.33 0 0 1789.33 -1789.33 0 0 -1789.33z"/>
   </clipPath>
 </defs>
 <g id="Capa_x0020_1">
  <metadata id="CorelCorpID_0Corel-Layer"/>
  <polygon class="fil0" points="-0,0 1789.33,0 1789.33,1789.33 -0,1789.33 "/>
  <g style="clip-path:url(#id0)">
   <g id="_1285513568">
    <g>
     <rect class="fil1" x="966.42" y="-64.18" width="1172.91" height="1917.54"/>
     <rect class="fil1" x="-357.27" y="-64.18" width="1330.96" height="1917.69"/>
    </g>
   </g>
  </g>
  <polygon class="fil2" points="-0,0 1789.33,0 1789.33,1789.33 -0,1789.33 "/>
  <g id="_1285520816">
   <path class="fil3" d="M1164.2 1406.5c-12.26,8.74 -21.29,17.24 -39.7,18.13 -18.51,0.89 -29.64,-7.85 -31.81,-23.97 -5.46,-40.68 38.22,-43.38 72.94,-40.52l-1.43 46.36zm-96.63 -115.24c42.76,-7.58 102.73,-35.78 97.42,40.4 -58.04,3.84 -120.94,8.52 -114.23,77.43 6.08,62.4 79.84,53.22 119.58,23.86l5.85 19.3 30.26 -0.79c4.19,-30.15 4.77,-154.73 -7.02,-174.63 -25.23,-42.62 -96.49,-27.55 -138.82,-11.11l6.96 25.54z"/>
   <path class="fil3" d="M795.66 1359.43l0.19 47.96c-5.55,2.76 -65.93,42.22 -72.98,-7.15 -5.88,-41.21 38.28,-40.83 72.79,-40.81zm-103.45 -93.46l3.87 24.41c46.23,-4.86 105,-35.97 99.29,41.83 -55.76,0.01 -117.83,9.23 -114.59,74.31 1.36,27.2 18.73,44.8 44.94,48.38 45.19,6.16 46.38,-10.75 74.73,-20.45l4.87 17.39 31.38 0.11c4.48,-28.66 4.84,-152.07 -6.22,-172.84 -24.35,-45.71 -110.52,-29.24 -138.28,-13.15z"/>
   <path class="fil3" d="M902.63 734.6c-3.83,-25.09 -54.17,-73.22 -64.31,-114.98 -14.53,-59.77 35.12,-100.5 59.66,-122.33 48.07,-42.75 151.99,-125.46 104.97,-216.91l-10.82 -12.84c1.05,37.34 6.47,54.58 -9.3,87.7 -30.04,63.08 -98.91,97.83 -149.25,146.43 -39.11,37.77 -62.63,71.64 -25.45,131.51 26.96,43.41 59.21,68.3 94.51,101.41z"/>
   <path class="fil3" d="M945.4 1385.23l-39.82 -131.85 -45.22 0.42 61.38 198.2 50.27 -0.39c24.85,-45.98 52.97,-136.48 61.63,-198.35l-43.73 1.03c-4.33,35.87 -22.73,122.9 -37.45,149.13l-4.89 -9.33c-0.6,-1.73 -1.73,-6.94 -2.18,-8.87z"/>
   <path class="fil4" d="M1169.07 1003.04c29.45,51.77 -221.95,57.34 -248.03,58.19 -54.36,1.78 -251.67,2.01 -280.41,-30.44 4.89,-15.79 35.67,-23.97 51.91,-27.49 8.96,-1.94 15.89,-2 22.83,-6.93 -34.47,-17 -194.09,42.84 -103.05,67.9 107.87,29.69 471.55,35.58 561.56,-29.94 13.87,-10.1 15.64,-27.14 -4.8,-31.29z"/>
   <path class="fil3" d="M585.36 1521.78c25,-3.31 49.33,-29.36 57.38,-46.63 11.8,-25.31 9.18,-60.05 9.19,-91.6 0.01,-66.87 0.1,-133.76 -0.02,-200.87l-43.46 1.1c-0.23,59.88 -0.03,119.8 -0.03,179.69 0,148.12 -15.22,98.74 -42.12,137.75l19.05 20.55z"/>
   <path class="fil3" d="M940.41 762.02c24.38,-10.74 63.21,-45.41 63.01,-81.17 -0.38,-68.38 -136.51,-96.25 49.01,-212.45 13.87,-8.69 27.52,-18.64 42.31,-27.04 -21.98,0.4 -266.98,76.19 -164.54,218.77 10.96,15.25 24.08,26.09 27.93,44.4 5.54,26.35 -11.29,41.39 -17.71,57.49z"/>
   <path class="fil4" d="M748.05 963.93c16.81,17.69 25.67,23.27 57.08,30.37 78.14,17.67 164.05,7.6 233.43,-20.58 -6.62,-7.29 -39.91,-23.94 -51.55,-23.73 -15.42,0.29 -47.9,7.72 -66.13,9.4 -37.58,3.45 -109.64,2.57 -137.67,-11.71 -1.35,-12.42 -1.04,-7.65 4.52,-15.9 -19.5,4.2 -37.52,10.21 -39.68,32.16z"/>
   <path class="fil5" d="M1085.32 772.67c-6.53,-3.27 -71.86,7.98 -86.9,9.48 -31.82,3.17 -60.85,5.77 -94.14,8.17 -33.26,2.4 -173.63,10.6 -186.67,-14.78 9.4,-18.78 60.55,-27.22 84.73,-36.56 -47.16,-4.92 -295.35,57.07 -23.65,75.15 63.33,4.21 182.3,-1.83 245.09,-16.28 30.17,-6.95 36.5,-13.72 61.54,-25.17z"/>
   <path class="fil4" d="M1053.87 881.95c-2.48,-2.56 -1.55,-1.83 -5.28,-4.51 -2.59,-1.86 -4.01,-2.58 -7.17,-4.43 -26.26,-15.39 -16.57,-16.58 -47.61,-10.23 -24.84,5.08 -51.82,7.44 -76.56,9.48 -38.68,3.19 -132.68,5.54 -157.01,-13.55 -1.3,-10.47 2.22,-13.08 5.78,-20.44 -64.14,13.63 -70,61.87 77.39,68.47 92.07,4.12 128.96,-8.56 210.46,-24.78z"/>
   <path class="fil6" d="M900.84 1112.6l-54.49 0c-50.55,0 -95.61,-8.21 -143.57,-10.54 50.63,41.1 524.19,40.24 518.38,-55.47 -32.86,48.02 -255.58,66.01 -320.32,66.01z"/>
   <path class="fil4" d="M1106.59 744.83c28.36,-1.55 40.7,-9.12 63.34,11.15 44.98,40.28 -11.86,97.7 -53.76,123 -10.51,6.35 -20.71,10.56 -26.79,18.62 98.18,-9.64 181.38,-112.99 101.91,-157.52 -23.2,-13 -67.73,-16.5 -84.7,4.76z"/>
  </g>
 </g>
</svg>
