<?xml version="1.0" encoding="UTF-8"?>
<!DOCTYPE svg PUBLIC "-//W3C//DTD SVG 1.1//EN" "http://www.w3.org/Graphics/SVG/1.1/DTD/svg11.dtd">
<!-- Creator: CorelDRAW 2020 (64-Bit) -->
<svg xmlns="http://www.w3.org/2000/svg" xml:space="preserve" width="8.2in" height="8.2in" version="1.1" style="shape-rendering:geometricPrecision; text-rendering:geometricPrecision; image-rendering:optimizeQuality; fill-rule:evenodd; clip-rule:evenodd"
viewBox="0 0 1543.8 1543.8"
 xmlns:xlink="http://www.w3.org/1999/xlink"
 xmlns:xodm="http://www.corel.com/coreldraw/odm/2003">
 <defs>
  <style type="text/css">
   <![CDATA[
    .fil1 {fill:none}
    .fil2 {fill:black}
    .fil3 {fill:#5A510B}
    .fil0 {fill:#F7DF1E}
   ]]>
  </style>
   <clipPath id="id0">
    <path d="M-0 0l1543.8 0 0 1543.8 -1543.8 0 0 -1543.8z"/>
   </clipPath>
 </defs>
 <g id="Capa_x0020_1">
  <metadata id="CorelCorpID_0Corel-Layer"/>
  <polygon class="fil0" points="-0,0 1543.8,0 1543.8,1543.8 -0,1543.8 "/>
  <g style="clip-path:url(#id0)">
   <g id="_1290326608">
    <g>
     <rect class="fil0" x="833.81" y="-55.37" width="1011.96" height="1654.41"/>
     <rect class="fil0" x="-308.24" y="-55.37" width="1148.32" height="1654.55"/>
    </g>
   </g>
  </g>
  <polygon class="fil1" points="-0,0 1543.8,0 1543.8,1543.8 -0,1543.8 "/>
  <g id="_1290328624">
   <path class="fil2" d="M1186.57 568.62c8.74,-4.16 23.96,-14.85 32.75,-20.78l99.48 -63.25c-8.85,-22.21 -43.21,-63.37 -56.79,-74.58 -23.89,-19.72 -44.74,-35.13 -81.75,-47.59 -69.4,-23.38 -158.75,-19.35 -222.63,8.7 -56.33,24.74 -103.64,71.93 -121.96,138.46 -21.15,76.81 -2.67,156.65 35.21,208.25 84.59,115.21 278.92,131.84 317.85,202.97 8.31,15.17 12.32,35.15 8.29,54.8 -16.1,78.58 -149.83,90.21 -222.33,35.24 -15.12,-11.46 -21.25,-18.04 -33.43,-32.15 -10.68,-12.38 -16.98,-23.91 -26.48,-36.92 -21.25,9.9 -47.89,27.14 -69.39,39.89 -11.63,6.9 -22.92,13.27 -34.7,20.2 -6.28,3.69 -29.35,15.7 -33.86,20.95 25.23,52.28 69.33,96.94 116.27,124.51 139.02,81.66 384.88,68.84 456.76,-91.64 22.76,-50.82 25.09,-119.54 8.93,-175.71 -29.88,-103.8 -125.67,-148.42 -216.33,-189.25 -42.78,-19.26 -108.4,-42.49 -130.63,-71.35 -15.67,-20.34 -22.38,-48.64 -11.47,-77.93 19.48,-52.29 98.53,-56.72 140.14,-27.67 26.73,18.67 30.1,33.86 46.04,54.84z"/>
   <path class="fil2" d="M512.55 953.03c0.09,13.55 -3,29.46 -7.02,41.28 -13.27,39.03 -48.95,51.99 -91.68,49.11 -64.58,-4.37 -79.17,-57.23 -101.24,-86.21 -5.75,1.67 -134.21,79.31 -138.07,83.32 2.74,9.61 14.41,28.29 19.9,36.72 59.03,90.64 159.37,128.04 273.2,116.69 91.46,-9.12 165.15,-52.59 197.89,-140.61 7.13,-19.18 20.46,-71.84 17,-94.07 -1.9,-19.54 0.4,-54.78 0.4,-76.39l-0.09 -525.14 -167.94 0c0,59.61 2.69,586.14 -2.35,595.3z"/>
   <path class="fil3" d="M512.55 953.03c5.04,-9.15 2.35,-535.69 2.35,-595.3l167.94 0 0.09 525.14c0,21.61 -2.3,56.84 -0.4,76.39 4.85,-9.42 2.13,-128.87 2.13,-149.01l0 -377.31c0,-23.81 1.45,-52.65 -0.36,-75.85 -12.54,-2.08 -160.6,-2.08 -170.99,0.2l-0.75 595.75z"/>
  </g>
 </g>
</svg>
