<?xml version="1.0" encoding="UTF-8"?>
<!DOCTYPE svg PUBLIC "-//W3C//DTD SVG 1.1//EN" "http://www.w3.org/Graphics/SVG/1.1/DTD/svg11.dtd">
<!-- Creator: CorelDRAW 2020 (64-Bit) -->
<svg xmlns="http://www.w3.org/2000/svg" xml:space="preserve" width="8.2in" height="8.2in" version="1.1" style="shape-rendering:geometricPrecision; text-rendering:geometricPrecision; image-rendering:optimizeQuality; fill-rule:evenodd; clip-rule:evenodd"
viewBox="0 0 1195.49 1195.49"
 xmlns:xlink="http://www.w3.org/1999/xlink"
 xmlns:xodm="http://www.corel.com/coreldraw/odm/2003">
 <defs>
  <style type="text/css">
   <![CDATA[
    .fil3 {fill:none}
    .fil2 {fill:#0072C5}
    .fil1 {fill:#2677C8}
    .fil0 {fill:#F7DF1E}
    .fil5 {fill:#FDFDFD}
    .fil4 {fill:#FDFDFE}
   ]]>
  </style>
   <clipPath id="id0">
    <path d="M-0 0l1195.49 0 0 1195.49 -1195.49 0 0 -1195.49z"/>
   </clipPath>
 </defs>
 <g id="Capa_x0020_1">
  <metadata id="CorelCorpID_0Corel-Layer"/>
  <polygon class="fil0" points="-0,0 1195.49,0 1195.49,1195.49 -0,1195.49 "/>
  <g style="clip-path:url(#id0)">
   <g id="_1297894944">
    <rect class="fil1" x="645.68" y="-42.88" width="783.64" height="1281.14"/>
    <rect class="fil2" x="-238.7" y="-42.88" width="889.24" height="1281.25"/>
   </g>
  </g>
  <polygon class="fil3" points="-0,0 1195.49,0 1195.49,1195.49 -0,1195.49 "/>
  <g id="_1297894704">
   <path class="fil4" d="M514.8 573.47c-4.89,-70.51 42.87,-150.17 118.56,-109.23 34.74,18.79 39.79,50.22 43.45,83.05 10.25,138.88 -152.7,160.25 -162,26.18zm35.82 -176.56c-5.2,3.35 -45.76,10.17 -79.79,53.4 -46.91,59.59 -44.16,146.86 -8.65,210.55 40.06,71.86 107.67,62.45 126.02,72.08l56.67 61.18c9.13,10.79 8.14,10.22 26.92,10.02 24.3,-0.26 48.61,0.07 72.91,-0.11 -2.02,-9.61 -9.51,-15.54 -20.11,-24.19 -9.07,-7.4 -57.96,-50.87 -62.71,-61.1l5.1 -5.01c3.25,-2.33 7.41,-2.67 19.77,-11.65 35.19,-25.52 34.22,-33.1 52.89,-63.08 27.5,-44.14 27.5,-180.04 -57.37,-226.03 -51.81,-28.07 -76.37,-22.54 -131.66,-16.08z"/>
   <path class="fil5" d="M193.14 638.19l-0.58 72.13c52.02,30.97 182.04,32.39 207.44,-46.88 19.51,-60.89 -13.34,-97.6 -63.42,-123.7 -18.31,-9.54 -49.6,-22.24 -60.36,-38.35 -18.78,-28.13 10.28,-67.22 80.04,-44.59 17.43,5.65 29.67,14.08 34.56,14.52l0.84 -66.56c-20.07,-11.68 -54.44,-13.89 -84.32,-13.44 -122.49,1.85 -136.44,110.36 -91.45,157.68 42.11,44.29 107.66,46.66 109.32,87.7 1.66,41.07 -61.46,39.52 -102.47,19.2 -8.24,-4.08 -24.03,-17.5 -29.61,-17.71z"/>
   <path class="fil4" d="M809.88 397.54l0.24 0.6 0.52 323.3c8.68,3.73 183.74,3.01 190.41,-0.08 2.79,-27.85 2.51,-39.32 0.47,-55.78 -30.23,-3.43 -94.44,4.41 -118.55,-2.1 -6.07,-42.81 -0.01,-235.41 -2.29,-265.71l-70.81 -0.24z"/>
  </g>
 </g>
</svg>
